<svg xmlns="http://www.w3.org/2000/svg" xmlns:xlink="http://www.w3.org/1999/xlink" xmlns:lucid="lucid" width="1080" height="897.21"><g transform="translate(-140 -164.2888059890829)" lucid:page-tab-id="18_45"><path d="M0 0h1360v1760H0z" fill="#fff"/><path d="M240 192.3c0-4.43 3.58-8 8-8h836.75c4.42 0 8 3.57 8 8v25.14c0 4.42-3.58 8-8 8H248c-4.42 0-8-3.58-8-8z" stroke="#000" stroke-opacity="0" stroke-width="2" fill="#fff" fill-opacity="0"/><use xlink:href="#a" transform="matrix(1,0,0,1,244,188.2888059890829) translate(363.35012345679013 25.782777777777778)"/><path d="M512.77 224.1h315.3M512.8 224.1h-1.03M828.04 224.1h1.03" stroke="#a9afb8" stroke-width="2" fill="none"/><path d="M240 233.44c0-4.4 3.58-8 8-8h837.7c4.43 0 8 3.6 8 8v2.85c0 4.4-3.57 8-8 8H248c-4.42 0-8-3.6-8-8z" stroke="#000" stroke-opacity="0" stroke-width="2" fill="#fff" fill-opacity="0"/><use xlink:href="#b" transform="matrix(1,0,0,1,244.00000000000045,229.4440299459817) translate(344.92095679012345 14.917037037037037)"/><use xlink:href="#c" transform="matrix(1,0,0,1,244.00000000000045,229.4440299459817) translate(358.47517489711936 14.917037037037037)"/><use xlink:href="#d" transform="matrix(1,0,0,1,244.00000000000045,229.4440299459817) translate(377.17064814814813 14.917037037037037)"/><use xlink:href="#e" transform="matrix(1,0,0,1,244.00000000000045,229.4440299459817) translate(389.62013374485593 14.917037037037037)"/><use xlink:href="#f" transform="matrix(1,0,0,1,244.00000000000045,229.4440299459817) translate(448.2134465020576 14.917037037037037)"/><use xlink:href="#g" transform="matrix(1,0,0,1,244.00000000000045,229.4440299459817) translate(473.7072736625514 14.917037037037037)"/><path d="M580 812.5c0-4.42 3.58-8 8-8h184c4.42 0 8 3.58 8 8v221c0 4.42-3.58 8-8 8H588c-4.42 0-8-3.58-8-8z" fill="#fff"/><path d="M580 804.5h200v40H580z" fill="#ccc"/><path d="M580 812.5c0-4.42 3.58-8 8-8h184c4.42 0 8 3.58 8 8v221c0 4.42-3.58 8-8 8H588c-4.42 0-8-3.58-8-8zM580 844.5h200" stroke="#333" fill="none"/><use xlink:href="#h" transform="matrix(1,0,0,1,590.0000000000002,804.5) translate(60.537037037037045 19.73333333333333)"/><use xlink:href="#i" transform="matrix(1,0,0,1,585.0000000000002,847) translate(65.5712962962963 19.73333333333333)"/><use xlink:href="#j" transform="matrix(1,0,0,1,585.0000000000002,847) translate(91.5398148148148 19.73333333333333)"/><use xlink:href="#k" transform="matrix(1,0,0,1,585.0000000000002,887) translate(75.88333333333334 19.73333333333333)"/><use xlink:href="#l" transform="matrix(1,0,0,1,585.0000000000002,927) translate(35.49166666666669 19.73333333333333)"/><use xlink:href="#m" transform="matrix(1,0,0,1,585.0000000000002,967) translate(68.27777777777779 19.73333333333333)"/><use xlink:href="#n" transform="matrix(1,0,0,1,585.0000000000002,1007) translate(27.760185185185193 17.955555555555552)"/><use xlink:href="#o" transform="matrix(1,0,0,1,585.0000000000002,1007) translate(133.62314814814815 17.955555555555552)"/><path d="M1000 812.5c0-4.42 3.58-8 8-8h184c4.42 0 8 3.58 8 8v120c0 4.42-3.58 8-8 8h-184c-4.42 0-8-3.58-8-8z" fill="#fff"/><path d="M1000 804.5h200v40h-200z" fill="#ccc"/><path d="M1000 812.5c0-4.42 3.58-8 8-8h184c4.42 0 8 3.58 8 8v120c0 4.42-3.58 8-8 8h-184c-4.42 0-8-3.58-8-8zM1000 844.5h200" stroke="#333" fill="none"/><use xlink:href="#p" transform="matrix(1,0,0,1,1010.0000000000005,804.5) translate(38.31543209876544 24.488888888888887)"/><use xlink:href="#q" transform="matrix(1,0,0,1,1005.0000000000005,847) translate(73.525 17.1)"/><use xlink:href="#r" transform="matrix(1,0,0,1,1005.0000000000005,847) translate(92.47500000000001 17.1)"/><use xlink:href="#s" transform="matrix(1,0,0,1,1005.0000000000005,879) translate(80.5 17.1)"/><use xlink:href="#t" transform="matrix(1,0,0,1,1005.0000000000005,911) translate(66.025 17.1)"/><path d="M160 308c0-4.42 3.58-8 8-8h184c4.42 0 8 3.58 8 8v283c0 4.42-3.58 8-8 8H168c-4.42 0-8-3.58-8-8z" fill="#fff"/><path d="M160 300h200v40H160z" fill="#ccc"/><path d="M160 308c0-4.42 3.58-8 8-8h184c4.42 0 8 3.58 8 8v283c0 4.42-3.58 8-8 8H168c-4.42 0-8-3.58-8-8zM160 340h200" stroke="#333" fill="none"/><use xlink:href="#u" transform="matrix(1,0,0,1,170,300) translate(62.59907407407408 17.955555555555552)"/><use xlink:href="#v" transform="matrix(1,0,0,1,165,342.5) translate(27.10555555555557 17.955555555555552)"/><use xlink:href="#w" transform="matrix(1,0,0,1,165,342.5) translate(132.96851851851852 17.955555555555552)"/><use xlink:href="#x" transform="matrix(1,0,0,1,165,379.5) translate(47.05617283950619 17.955555555555552)"/><use xlink:href="#y" transform="matrix(1,0,0,1,165,416.5) translate(42.723148148148155 17.955555555555552)"/><use xlink:href="#z" transform="matrix(1,0,0,1,165,453.5) translate(43.31543209876544 17.955555555555552)"/><use xlink:href="#A" transform="matrix(1,0,0,1,165,490.5) translate(68.28487654320989 17.955555555555552)"/><use xlink:href="#B" transform="matrix(1,0,0,1,165,527.5) translate(48.3030864197531 17.955555555555552)"/><use xlink:href="#C" transform="matrix(1,0,0,1,165,564.5) translate(50.204629629629636 17.955555555555552)"/><path d="M579.52 308c0-4.42 3.58-8 8-8h184c4.42 0 8 3.58 8 8v98c0 4.42-3.58 8-8 8h-184c-4.42 0-8-3.58-8-8z" fill="#fff"/><path d="M579.52 300h200v40h-200z" fill="#ccc"/><path d="M579.52 308c0-4.42 3.58-8 8-8h184c4.42 0 8 3.58 8 8v98c0 4.42-3.58 8-8 8h-184c-4.42 0-8-3.58-8-8zM579.52 340h200" stroke="#333" fill="none"/><use xlink:href="#D" transform="matrix(1,0,0,1,589.5213070194006,300) translate(15.902160493827168 24.488888888888887)"/><use xlink:href="#E" transform="matrix(1,0,0,1,584.5213070194006,342.5) translate(15.914506172839523 20.488888888888887)"/><use xlink:href="#w" transform="matrix(1,0,0,1,584.5213070194006,342.5) translate(144.15956790123454 20.488888888888887)"/><use xlink:href="#v" transform="matrix(1,0,0,1,584.5213070194006,379.5) translate(27.10555555555557 20.488888888888887)"/><use xlink:href="#w" transform="matrix(1,0,0,1,584.5213070194006,379.5) translate(132.96851851851852 20.488888888888887)"/><path d="M160 812.5c0-4.42 3.58-8 8-8h184c4.42 0 8 3.58 8 8v135c0 4.42-3.58 8-8 8H168c-4.42 0-8-3.58-8-8z" fill="#fff"/><path d="M160 804.5h200v40H160z" fill="#ccc"/><path d="M160 812.5c0-4.42 3.58-8 8-8h184c4.42 0 8 3.58 8 8v135c0 4.42-3.58 8-8 8H168c-4.42 0-8-3.58-8-8zM160 844.5h200" stroke="#333" fill="none"/><use xlink:href="#F" transform="matrix(1,0,0,1,170,804.5) translate(63.19135802469137 24.488888888888887)"/><use xlink:href="#G" transform="matrix(1,0,0,1,165,847) translate(40.79043209876544 20.488888888888887)"/><use xlink:href="#w" transform="matrix(1,0,0,1,165,847) translate(119.28364197530863 20.488888888888887)"/><use xlink:href="#v" transform="matrix(1,0,0,1,165,884) translate(27.10555555555557 20.488888888888887)"/><use xlink:href="#w" transform="matrix(1,0,0,1,165,884) translate(132.96851851851852 20.488888888888887)"/><use xlink:href="#H" transform="matrix(1,0,0,1,165,921) translate(52.69845679012346 20.488888888888887)"/><path d="M380.5 358.05h179.1" stroke="#333" fill="none"/><path d="M380.5 368.05v-20M360.5 358.05h20M578.8 368.05l-20-10 20-10M578.8 358.05h-20" stroke="#333" fill="#fff"/><path d="M260 619.5v165.1" stroke="#333" fill="none"/><path d="M250 619.5h20M260 599.5v20M250 803.78l10-20 10 20M260 803.78v-20" stroke="#333" fill="#fff"/><path d="M559.5 864.5h-89.4c-.06 0-.1-.04-.1-.1 0-.06-.04-.1-.1-.1h-90" stroke="#333" fill="none"/><path d="M559.5 854.5v20M579.5 864.5h-20M360.72 854.3l20 10-20 10M360.72 864.3h20" stroke="#333" fill="#fff"/><path d="M800.5 864.5h89.4c.06 0 .1-.04.1-.1 0-.06.04-.1.1-.1h90" stroke="#333" fill="none"/><path d="M800.5 874.5v-20M780.5 864.5h20M999.28 874.3l-20-10 20-10M999.28 864.3h-20" stroke="#333" fill="#fff"/><path d="M1100 784V370.5c0-6.62-5.37-12-12-12H800.02" stroke="#333" fill="none"/><path d="M1110 784h-20M1100 804v-20M800.02 368.5v-20M780.02 358.5h20" stroke="#333" fill="#fff"/><path d="M380.5 506.8H668c6.63 0 12 5.36 12 12v265.8" stroke="#333" fill="none"/><path d="M380.5 516.8v-20M360.5 506.8h20M670 803.78l10-20 10 20M680 803.78v-20" stroke="#333" fill="#fff"/><defs><path fill="#a9afb8" d="M230 0l2-204L168 0h-37L68-204 70 0H24v-248h70l56 185 57-185h69V0h-46" id="I"/><path fill="#a9afb8" d="M25-224v-37h50v37H25zM25 0v-190h50V0H25" id="J"/><path fill="#a9afb8" d="M190-63c-7 42-38 67-86 67-59 0-84-38-90-98-12-110 154-137 174-36l-49 2c-2-19-15-32-35-32-30 0-35 28-38 64-6 74 65 87 74 30" id="K"/><path fill="#a9afb8" d="M135-150c-39-12-60 13-60 57V0H25l-1-190h47c2 13-1 29 3 40 6-28 27-53 61-41v41" id="L"/><path fill="#a9afb8" d="M110-194c64 0 96 36 96 99 0 64-35 99-97 99-61 0-95-36-95-99 0-62 34-99 96-99zm-1 164c35 0 45-28 45-65 0-40-10-65-43-65-34 0-45 26-45 65 0 36 10 65 43 65" id="M"/><path fill="#a9afb8" d="M135-194c52 0 70 43 70 98 0 56-19 99-73 100-30 1-46-15-58-35L72 0H24l1-261h50v104c11-23 29-37 60-37zM114-30c31 0 40-27 40-66 0-37-7-63-39-63s-41 28-41 65c0 36 8 64 40 64" id="N"/><path fill="#a9afb8" d="M25 0v-261h50V0H25" id="O"/><path fill="#a9afb8" d="M195-6C206 82 75 100 31 46c-4-6-6-13-8-21l49-6c3 16 16 24 34 25 40 0 42-37 40-79-11 22-30 35-61 35-53 0-70-43-70-97 0-56 18-96 73-97 30 0 46 14 59 34l2-30h47zm-90-29c32 0 41-27 41-63 0-35-9-62-40-62-32 0-39 29-40 63 0 36 9 62 39 62" id="P"/><g id="a"><use transform="matrix(0.0728395061728395,0,0,0.0728395061728395,0,0)" xlink:href="#I"/><use transform="matrix(0.0728395061728395,0,0,0.0728395061728395,21.77901234567901,0)" xlink:href="#J"/><use transform="matrix(0.0728395061728395,0,0,0.0728395061728395,29.06296296296296,0)" xlink:href="#K"/><use transform="matrix(0.0728395061728395,0,0,0.0728395061728395,43.63086419753086,0)" xlink:href="#L"/><use transform="matrix(0.0728395061728395,0,0,0.0728395061728395,53.82839506172839,0)" xlink:href="#M"/><use transform="matrix(0.0728395061728395,0,0,0.0728395061728395,69.78024691358024,0)" xlink:href="#N"/><use transform="matrix(0.0728395061728395,0,0,0.0728395061728395,85.7320987654321,0)" xlink:href="#O"/><use transform="matrix(0.0728395061728395,0,0,0.0728395061728395,93.01604938271605,0)" xlink:href="#M"/><use transform="matrix(0.0728395061728395,0,0,0.0728395061728395,108.9679012345679,0)" xlink:href="#P"/></g><path fill="#a9afb8" d="M63-220v92h138v28H63V0H30v-248h175v28H63" id="Q"/><use transform="matrix(0.04248971193415638,0,0,0.04248971193415638,0,0)" xlink:href="#Q" id="b"/><path fill="#a9afb8" d="M137 0h-34L2-248h35l83 218 83-218h36" id="R"/><use transform="matrix(0.04248971193415638,0,0,0.04248971193415638,0,0)" xlink:href="#R" id="c"/><path fill="#a9afb8" d="M32 76v-337h29V76H32" id="S"/><use transform="matrix(0.04248971193415638,0,0,0.04248971193415638,0,0)" xlink:href="#S" id="d"/><path fill="#a9afb8" d="M140-251c81 0 123 46 123 126C263-46 219 4 140 4 59 4 17-45 17-125s42-126 123-126zm0 227c63 0 89-41 89-101s-29-99-89-99c-61 0-89 39-89 99S79-25 140-24" id="T"/><path fill="#a9afb8" d="M96-169c-40 0-48 33-48 73s9 75 48 75c24 0 41-14 43-38l32 2c-6 37-31 61-74 61-59 0-76-41-82-99-10-93 101-131 147-64 4 7 5 14 7 22l-32 3c-4-21-16-35-41-35" id="U"/><path fill="#a9afb8" d="M59-47c-2 24 18 29 38 22v24C64 9 27 4 27-40v-127H5v-23h24l9-43h21v43h35v23H59v120" id="V"/><path fill="#a9afb8" d="M100-194c62-1 85 37 85 99 1 63-27 99-86 99S16-35 15-95c0-66 28-99 85-99zM99-20c44 1 53-31 53-75 0-43-8-75-51-75s-53 32-53 75 10 74 51 75" id="W"/><path fill="#a9afb8" d="M115-194c53 0 69 39 70 98 0 66-23 100-70 100C84 3 66-7 56-30L54 0H23l1-261h32v101c10-23 28-34 59-34zm-8 174c40 0 45-34 45-75 0-40-5-75-45-74-42 0-51 32-51 76 0 43 10 73 51 73" id="X"/><path fill="#a9afb8" d="M100-194c63 0 86 42 84 106H49c0 40 14 67 53 68 26 1 43-12 49-29l28 8c-11 28-37 45-77 45C44 4 14-33 15-96c1-61 26-98 85-98zm52 81c6-60-76-77-97-28-3 7-6 17-6 28h103" id="Y"/><path fill="#a9afb8" d="M114-163C36-179 61-72 57 0H25l-1-190h30c1 12-1 29 2 39 6-27 23-49 58-41v29" id="Z"/><g id="e"><use transform="matrix(0.04248971193415638,0,0,0.04248971193415638,0,0)" xlink:href="#T"/><use transform="matrix(0.04248971193415638,0,0,0.04248971193415638,11.897119341563785,0)" xlink:href="#U"/><use transform="matrix(0.04248971193415638,0,0,0.04248971193415638,19.545267489711932,0)" xlink:href="#V"/><use transform="matrix(0.04248971193415638,0,0,0.04248971193415638,23.79423868312757,0)" xlink:href="#W"/><use transform="matrix(0.04248971193415638,0,0,0.04248971193415638,32.29218106995884,0)" xlink:href="#X"/><use transform="matrix(0.04248971193415638,0,0,0.04248971193415638,40.79012345679012,0)" xlink:href="#Y"/><use transform="matrix(0.04248971193415638,0,0,0.04248971193415638,49.288065843621396,0)" xlink:href="#Z"/></g><path fill="#a9afb8" d="M101-251c82-7 93 87 43 132L82-64C71-53 59-42 53-27h129V0H18c2-99 128-94 128-182 0-28-16-43-45-43s-46 15-49 41l-32-3c6-41 34-60 81-64" id="aa"/><path fill="#a9afb8" d="M101-251c68 0 85 55 85 127S166 4 100 4C33 4 14-52 14-124c0-73 17-127 87-127zm-1 229c47 0 54-49 54-102s-4-102-53-102c-51 0-55 48-55 102 0 53 5 102 54 102" id="ab"/><path fill="#a9afb8" d="M68-38c1 34 0 65-14 84H32c9-13 17-26 17-46H33v-38h35" id="ac"/><g id="f"><use transform="matrix(0.04248971193415638,0,0,0.04248971193415638,0,0)" xlink:href="#aa"/><use transform="matrix(0.04248971193415638,0,0,0.04248971193415638,8.497942386831275,0)" xlink:href="#ab"/><use transform="matrix(0.04248971193415638,0,0,0.04248971193415638,16.99588477366255,0)" xlink:href="#ac"/></g><g id="g"><use transform="matrix(0.04248971193415638,0,0,0.04248971193415638,0,0)" xlink:href="#aa"/><use transform="matrix(0.04248971193415638,0,0,0.04248971193415638,8.497942386831275,0)" xlink:href="#ab"/><use transform="matrix(0.04248971193415638,0,0,0.04248971193415638,16.99588477366255,0)" xlink:href="#aa"/><use transform="matrix(0.04248971193415638,0,0,0.04248971193415638,25.493827160493822,0)" xlink:href="#ab"/></g><path fill="#333" d="M115-194c55 1 70 41 70 98S169 2 115 4C84 4 66-9 55-30l1 105H24l-1-265h31l2 30c10-21 28-34 59-34zm-8 174c40 0 45-34 45-75s-6-73-45-74c-42 0-51 32-51 76 0 43 10 73 51 73" id="ad"/><path fill="#333" d="M100-194c62-1 85 37 85 99 1 63-27 99-86 99S16-35 15-95c0-66 28-99 85-99zM99-20c44 1 53-31 53-75 0-43-8-75-51-75s-53 32-53 75 10 74 51 75" id="ae"/><path fill="#333" d="M135-143c-3-34-86-38-87 0 15 53 115 12 119 90S17 21 10-45l28-5c4 36 97 45 98 0-10-56-113-15-118-90-4-57 82-63 122-42 12 7 21 19 24 35" id="af"/><path fill="#333" d="M59-47c-2 24 18 29 38 22v24C64 9 27 4 27-40v-127H5v-23h24l9-43h21v43h35v23H59v120" id="ag"/><g id="h"><use transform="matrix(0.0685185185185185,0,0,0.0685185185185185,0,0)" xlink:href="#ad"/><use transform="matrix(0.0685185185185185,0,0,0.0685185185185185,13.7037037037037,0)" xlink:href="#ae"/><use transform="matrix(0.0685185185185185,0,0,0.0685185185185185,27.4074074074074,0)" xlink:href="#af"/><use transform="matrix(0.0685185185185185,0,0,0.0685185185185185,39.74074074074073,0)" xlink:href="#ag"/><use transform="matrix(0.0685185185185185,0,0,0.0685185185185185,46.59259259259258,0)" xlink:href="#af"/></g><path fill="#333" d="M24-231v-30h32v30H24zM24 0v-190h32V0H24" id="ah"/><path fill="#333" d="M85-194c31 0 48 13 60 33l-1-100h32l1 261h-30c-2-10 0-23-3-31C134-8 116 4 85 4 32 4 16-35 15-94c0-66 23-100 70-100zm9 24c-40 0-46 34-46 75 0 40 6 74 45 74 42 0 51-32 51-76 0-42-9-74-50-73" id="ai"/><g id="i"><use transform="matrix(0.0685185185185185,0,0,0.0685185185185185,0,0)" xlink:href="#ah"/><use transform="matrix(0.0685185185185185,0,0,0.0685185185185185,5.412962962962962,0)" xlink:href="#ai"/></g><path fill="#333" d="M30-248c87 1 191-15 191 75 0 78-77 80-158 76V0H30v-248zm33 125c57 0 124 11 124-50 0-59-68-47-124-48v98" id="aj"/><path fill="#333" d="M194 0L95-120 63-95V0H30v-248h33v124l119-124h40L117-140 236 0h-42" id="ak"/><g id="j"><use transform="matrix(0.0685185185185185,0,0,0.0685185185185185,0,0)" xlink:href="#aj"/><use transform="matrix(0.0685185185185185,0,0,0.0685185185185185,16.444444444444443,0)" xlink:href="#ak"/></g><path fill="#333" d="M24 0v-261h32V0H24" id="al"/><path fill="#333" d="M100-194c63 0 86 42 84 106H49c0 40 14 67 53 68 26 1 43-12 49-29l28 8c-11 28-37 45-77 45C44 4 14-33 15-96c1-61 26-98 85-98zm52 81c6-60-76-77-97-28-3 7-6 17-6 28h103" id="am"/><g id="k"><use transform="matrix(0.0685185185185185,0,0,0.0685185185185185,0,0)" xlink:href="#ag"/><use transform="matrix(0.0685185185185185,0,0,0.0685185185185185,6.85185185185185,0)" xlink:href="#ah"/><use transform="matrix(0.0685185185185185,0,0,0.0685185185185185,12.264814814814812,0)" xlink:href="#ag"/><use transform="matrix(0.0685185185185185,0,0,0.0685185185185185,19.116666666666664,0)" xlink:href="#al"/><use transform="matrix(0.0685185185185185,0,0,0.0685185185185185,24.529629629629625,0)" xlink:href="#am"/></g><path fill="#333" d="M96-169c-40 0-48 33-48 73s9 75 48 75c24 0 41-14 43-38l32 2c-6 37-31 61-74 61-59 0-76-41-82-99-10-93 101-131 147-64 4 7 5 14 7 22l-32 3c-4-21-16-35-41-35" id="an"/><path fill="#333" d="M114-163C36-179 61-72 57 0H25l-1-190h30c1 12-1 29 2 39 6-27 23-49 58-41v29" id="ao"/><path fill="#333" d="M117-194c89-4 53 116 60 194h-32v-121c0-31-8-49-39-48C34-167 62-67 57 0H25l-1-190h30c1 10-1 24 2 32 11-22 29-35 61-36" id="ap"/><g id="l"><use transform="matrix(0.0685185185185185,0,0,0.0685185185185185,0,0)" xlink:href="#ai"/><use transform="matrix(0.0685185185185185,0,0,0.0685185185185185,13.7037037037037,0)" xlink:href="#am"/><use transform="matrix(0.0685185185185185,0,0,0.0685185185185185,27.4074074074074,0)" xlink:href="#af"/><use transform="matrix(0.0685185185185185,0,0,0.0685185185185185,39.74074074074073,0)" xlink:href="#an"/><use transform="matrix(0.0685185185185185,0,0,0.0685185185185185,52.07407407407406,0)" xlink:href="#ao"/><use transform="matrix(0.0685185185185185,0,0,0.0685185185185185,60.22777777777776,0)" xlink:href="#ah"/><use transform="matrix(0.0685185185185185,0,0,0.0685185185185185,65.64074074074072,0)" xlink:href="#ad"/><use transform="matrix(0.0685185185185185,0,0,0.0685185185185185,79.34444444444442,0)" xlink:href="#ag"/><use transform="matrix(0.0685185185185185,0,0,0.0685185185185185,86.19629629629627,0)" xlink:href="#ah"/><use transform="matrix(0.0685185185185185,0,0,0.0685185185185185,91.60925925925923,0)" xlink:href="#ae"/><use transform="matrix(0.0685185185185185,0,0,0.0685185185185185,105.31296296296293,0)" xlink:href="#ap"/></g><path d="M115-194c53 0 69 39 70 98 0 66-23 100-70 100C84 3 66-7 56-30L54 0H23l1-261h32v101c10-23 28-34 59-34zm-8 174c40 0 45-34 45-75 0-40-5-75-45-74-42 0-51 32-51 76 0 43 10 73 51 73" id="aq"/><path d="M100-194c62-1 85 37 85 99 1 63-27 99-86 99S16-35 15-95c0-66 28-99 85-99zM99-20c44 1 53-31 53-75 0-43-8-75-51-75s-53 32-53 75 10 74 51 75" id="ar"/><path d="M85-194c31 0 48 13 60 33l-1-100h32l1 261h-30c-2-10 0-23-3-31C134-8 116 4 85 4 32 4 16-35 15-94c0-66 23-100 70-100zm9 24c-40 0-46 34-46 75 0 40 6 74 45 74 42 0 51-32 51-76 0-42-9-74-50-73" id="as"/><path d="M179-190L93 31C79 59 56 82 12 73V49c39 6 53-20 64-50L1-190h34L92-34l54-156h33" id="at"/><g id="m"><use transform="matrix(0.0685185185185185,0,0,0.0685185185185185,0,0)" xlink:href="#aq"/><use transform="matrix(0.0685185185185185,0,0,0.0685185185185185,13.7037037037037,0)" xlink:href="#ar"/><use transform="matrix(0.0685185185185185,0,0,0.0685185185185185,27.4074074074074,0)" xlink:href="#as"/><use transform="matrix(0.0685185185185185,0,0,0.0685185185185185,41.11111111111111,0)" xlink:href="#at"/></g><path d="M84 4C-5 8 30-112 23-190h32v120c0 31 7 50 39 49 72-2 45-101 50-169h31l1 190h-30c-1-10 1-25-2-33-11 22-28 36-60 37" id="au"/><path d="M135-143c-3-34-86-38-87 0 15 53 115 12 119 90S17 21 10-45l28-5c4 36 97 45 98 0-10-56-113-15-118-90-4-57 82-63 122-42 12 7 21 19 24 35" id="av"/><path d="M100-194c63 0 86 42 84 106H49c0 40 14 67 53 68 26 1 43-12 49-29l28 8c-11 28-37 45-77 45C44 4 14-33 15-96c1-61 26-98 85-98zm52 81c6-60-76-77-97-28-3 7-6 17-6 28h103" id="aw"/><path d="M114-163C36-179 61-72 57 0H25l-1-190h30c1 12-1 29 2 39 6-27 23-49 58-41v29" id="ax"/><path d="M117-194c89-4 53 116 60 194h-32v-121c0-31-8-49-39-48C34-167 62-67 57 0H25l-1-190h30c1 10-1 24 2 32 11-22 29-35 61-36" id="ay"/><path d="M141-36C126-15 110 5 73 4 37 3 15-17 15-53c-1-64 63-63 125-63 3-35-9-54-41-54-24 1-41 7-42 31l-33-3c5-37 33-52 76-52 45 0 72 20 72 64v82c-1 20 7 32 28 27v20c-31 9-61-2-59-35zM48-53c0 20 12 33 32 33 41-3 63-29 60-74-43 2-92-5-92 41" id="az"/><path d="M210-169c-67 3-38 105-44 169h-31v-121c0-29-5-50-35-48C34-165 62-65 56 0H25l-1-190h30c1 10-1 24 2 32 10-44 99-50 107 0 11-21 27-35 58-36 85-2 47 119 55 194h-31v-121c0-29-5-49-35-48" id="aA"/><g id="n"><use transform="matrix(0.06234567901234567,0,0,0.06234567901234567,0,0)" xlink:href="#au"/><use transform="matrix(0.06234567901234567,0,0,0.06234567901234567,12.469135802469133,0)" xlink:href="#av"/><use transform="matrix(0.06234567901234567,0,0,0.06234567901234567,23.691358024691354,0)" xlink:href="#aw"/><use transform="matrix(0.06234567901234567,0,0,0.06234567901234567,36.16049382716049,0)" xlink:href="#ax"/><use transform="matrix(0.06234567901234567,0,0,0.06234567901234567,43.57962962962962,0)" xlink:href="#ay"/><use transform="matrix(0.06234567901234567,0,0,0.06234567901234567,56.048765432098755,0)" xlink:href="#az"/><use transform="matrix(0.06234567901234567,0,0,0.06234567901234567,68.51790123456789,0)" xlink:href="#aA"/><use transform="matrix(0.06234567901234567,0,0,0.06234567901234567,87.15925925925924,0)" xlink:href="#aw"/></g><path d="M63-220v92h138v28H63V0H30v-248h175v28H63" id="aB"/><path d="M194 0L95-120 63-95V0H30v-248h33v124l119-124h40L117-140 236 0h-42" id="aC"/><g id="o"><use transform="matrix(0.06234567901234567,0,0,0.06234567901234567,0,0)" xlink:href="#aB"/><use transform="matrix(0.06234567901234567,0,0,0.06234567901234567,13.653703703703702,0)" xlink:href="#aC"/></g><path fill="#333" d="M210-169c-67 3-38 105-44 169h-31v-121c0-29-5-50-35-48C34-165 62-65 56 0H25l-1-190h30c1 10-1 24 2 32 10-44 99-50 107 0 11-21 27-35 58-36 85-2 47 119 55 194h-31v-121c0-29-5-49-35-48" id="aD"/><g id="p"><use transform="matrix(0.06234567901234567,0,0,0.06234567901234567,0,0)" xlink:href="#an"/><use transform="matrix(0.06234567901234567,0,0,0.06234567901234567,11.22222222222222,0)" xlink:href="#ae"/><use transform="matrix(0.06234567901234567,0,0,0.06234567901234567,23.691358024691354,0)" xlink:href="#aD"/><use transform="matrix(0.06234567901234567,0,0,0.06234567901234567,42.33271604938271,0)" xlink:href="#aD"/><use transform="matrix(0.06234567901234567,0,0,0.06234567901234567,60.97407407407407,0)" xlink:href="#am"/><use transform="matrix(0.06234567901234567,0,0,0.06234567901234567,73.4432098765432,0)" xlink:href="#ap"/><use transform="matrix(0.06234567901234567,0,0,0.06234567901234567,85.91234567901233,0)" xlink:href="#ag"/><use transform="matrix(0.06234567901234567,0,0,0.06234567901234567,92.1469135802469,0)" xlink:href="#af"/></g><g id="q"><use transform="matrix(0.05,0,0,0.05,0,0)" xlink:href="#ah"/><use transform="matrix(0.05,0,0,0.05,3.95,0)" xlink:href="#ai"/></g><g id="r"><use transform="matrix(0.05,0,0,0.05,0,0)" xlink:href="#aj"/><use transform="matrix(0.05,0,0,0.05,12,0)" xlink:href="#ak"/></g><path fill="#333" d="M141 0L90-78 38 0H4l68-98-65-92h35l48 74 47-74h35l-64 92 68 98h-35" id="aE"/><g id="s"><use transform="matrix(0.05,0,0,0.05,0,0)" xlink:href="#ag"/><use transform="matrix(0.05,0,0,0.05,5,0)" xlink:href="#am"/><use transform="matrix(0.05,0,0,0.05,15,0)" xlink:href="#aE"/><use transform="matrix(0.05,0,0,0.05,24,0)" xlink:href="#ag"/></g><path fill="#333" d="M-5 72V49h209v23H-5" id="aF"/><g id="t"><use transform="matrix(0.05,0,0,0.05,0,0)" xlink:href="#ad"/><use transform="matrix(0.05,0,0,0.05,10,0)" xlink:href="#ae"/><use transform="matrix(0.05,0,0,0.05,20,0)" xlink:href="#af"/><use transform="matrix(0.05,0,0,0.05,29,0)" xlink:href="#ag"/><use transform="matrix(0.05,0,0,0.05,34,0)" xlink:href="#aF"/><use transform="matrix(0.05,0,0,0.05,44,0)" xlink:href="#ah"/><use transform="matrix(0.05,0,0,0.05,47.95,0)" xlink:href="#ai"/></g><path fill="#333" d="M84 4C-5 8 30-112 23-190h32v120c0 31 7 50 39 49 72-2 45-101 50-169h31l1 190h-30c-1-10 1-25-2-33-11 22-28 36-60 37" id="aG"/><g id="u"><use transform="matrix(0.06234567901234567,0,0,0.06234567901234567,0,0)" xlink:href="#aG"/><use transform="matrix(0.06234567901234567,0,0,0.06234567901234567,12.469135802469133,0)" xlink:href="#af"/><use transform="matrix(0.06234567901234567,0,0,0.06234567901234567,23.691358024691354,0)" xlink:href="#am"/><use transform="matrix(0.06234567901234567,0,0,0.06234567901234567,36.16049382716049,0)" xlink:href="#ao"/><use transform="matrix(0.06234567901234567,0,0,0.06234567901234567,43.57962962962962,0)" xlink:href="#af"/></g><path fill="#333" d="M141-36C126-15 110 5 73 4 37 3 15-17 15-53c-1-64 63-63 125-63 3-35-9-54-41-54-24 1-41 7-42 31l-33-3c5-37 33-52 76-52 45 0 72 20 72 64v82c-1 20 7 32 28 27v20c-31 9-61-2-59-35zM48-53c0 20 12 33 32 33 41-3 63-29 60-74-43 2-92-5-92 41" id="aH"/><g id="v"><use transform="matrix(0.06234567901234567,0,0,0.06234567901234567,0,0)" xlink:href="#aG"/><use transform="matrix(0.06234567901234567,0,0,0.06234567901234567,12.469135802469133,0)" xlink:href="#af"/><use transform="matrix(0.06234567901234567,0,0,0.06234567901234567,23.691358024691354,0)" xlink:href="#am"/><use transform="matrix(0.06234567901234567,0,0,0.06234567901234567,36.16049382716049,0)" xlink:href="#ao"/><use transform="matrix(0.06234567901234567,0,0,0.06234567901234567,43.57962962962962,0)" xlink:href="#ap"/><use transform="matrix(0.06234567901234567,0,0,0.06234567901234567,56.048765432098755,0)" xlink:href="#aH"/><use transform="matrix(0.06234567901234567,0,0,0.06234567901234567,68.51790123456789,0)" xlink:href="#aD"/><use transform="matrix(0.06234567901234567,0,0,0.06234567901234567,87.15925925925924,0)" xlink:href="#am"/></g><g id="w"><use transform="matrix(0.06234567901234567,0,0,0.06234567901234567,0,0)" xlink:href="#aj"/><use transform="matrix(0.06234567901234567,0,0,0.06234567901234567,14.96296296296296,0)" xlink:href="#ak"/></g><path fill="#333" d="M206 0h-36l-40-164L89 0H53L-1-190h32L70-26l43-164h34l41 164 42-164h31" id="aI"/><g id="x"><use transform="matrix(0.06234567901234567,0,0,0.06234567901234567,0,0)" xlink:href="#ad"/><use transform="matrix(0.06234567901234567,0,0,0.06234567901234567,12.469135802469133,0)" xlink:href="#aH"/><use transform="matrix(0.06234567901234567,0,0,0.06234567901234567,24.938271604938265,0)" xlink:href="#af"/><use transform="matrix(0.06234567901234567,0,0,0.06234567901234567,36.16049382716049,0)" xlink:href="#af"/><use transform="matrix(0.06234567901234567,0,0,0.06234567901234567,47.38271604938271,0)" xlink:href="#aI"/><use transform="matrix(0.06234567901234567,0,0,0.06234567901234567,63.530246913580235,0)" xlink:href="#ae"/><use transform="matrix(0.06234567901234567,0,0,0.06234567901234567,75.99938271604937,0)" xlink:href="#ao"/><use transform="matrix(0.06234567901234567,0,0,0.06234567901234567,83.4185185185185,0)" xlink:href="#ai"/></g><path fill="#333" d="M101-234c-31-9-42 10-38 44h38v23H63V0H32v-167H5v-23h27c-7-52 17-82 69-68v24" id="aJ"/><g id="y"><use transform="matrix(0.06234567901234567,0,0,0.06234567901234567,0,0)" xlink:href="#aJ"/><use transform="matrix(0.06234567901234567,0,0,0.06234567901234567,6.234567901234566,0)" xlink:href="#ah"/><use transform="matrix(0.06234567901234567,0,0,0.06234567901234567,11.159876543209874,0)" xlink:href="#ao"/><use transform="matrix(0.06234567901234567,0,0,0.06234567901234567,18.579012345679008,0)" xlink:href="#af"/><use transform="matrix(0.06234567901234567,0,0,0.06234567901234567,29.801234567901226,0)" xlink:href="#ag"/><use transform="matrix(0.06234567901234567,0,0,0.06234567901234567,36.03580246913579,0)" xlink:href="#aF"/><use transform="matrix(0.06234567901234567,0,0,0.06234567901234567,48.50493827160492,0)" xlink:href="#ap"/><use transform="matrix(0.06234567901234567,0,0,0.06234567901234567,60.97407407407405,0)" xlink:href="#aH"/><use transform="matrix(0.06234567901234567,0,0,0.06234567901234567,73.4432098765432,0)" xlink:href="#aD"/><use transform="matrix(0.06234567901234567,0,0,0.06234567901234567,92.08456790123455,0)" xlink:href="#am"/></g><path d="M24 0v-261h32V0H24" id="aK"/><path d="M59-47c-2 24 18 29 38 22v24C64 9 27 4 27-40v-127H5v-23h24l9-43h21v43h35v23H59v120" id="aL"/><path d="M-5 72V49h209v23H-5" id="aM"/><g id="z"><use transform="matrix(0.06234567901234567,0,0,0.06234567901234567,0,0)" xlink:href="#aK"/><use transform="matrix(0.06234567901234567,0,0,0.06234567901234567,4.925308641975308,0)" xlink:href="#az"/><use transform="matrix(0.06234567901234567,0,0,0.06234567901234567,17.39444444444444,0)" xlink:href="#av"/><use transform="matrix(0.06234567901234567,0,0,0.06234567901234567,28.61666666666666,0)" xlink:href="#aL"/><use transform="matrix(0.06234567901234567,0,0,0.06234567901234567,34.85123456790123,0)" xlink:href="#aM"/><use transform="matrix(0.06234567901234567,0,0,0.06234567901234567,47.32037037037036,0)" xlink:href="#ay"/><use transform="matrix(0.06234567901234567,0,0,0.06234567901234567,59.789506172839495,0)" xlink:href="#az"/><use transform="matrix(0.06234567901234567,0,0,0.06234567901234567,72.25864197530862,0)" xlink:href="#aA"/><use transform="matrix(0.06234567901234567,0,0,0.06234567901234567,90.89999999999998,0)" xlink:href="#aw"/></g><path d="M24-231v-30h32v30H24zM24 0v-190h32V0H24" id="aN"/><g id="A"><use transform="matrix(0.06234567901234567,0,0,0.06234567901234567,0,0)" xlink:href="#aw"/><use transform="matrix(0.06234567901234567,0,0,0.06234567901234567,12.469135802469133,0)" xlink:href="#aA"/><use transform="matrix(0.06234567901234567,0,0,0.06234567901234567,31.110493827160486,0)" xlink:href="#az"/><use transform="matrix(0.06234567901234567,0,0,0.06234567901234567,43.57962962962962,0)" xlink:href="#aN"/><use transform="matrix(0.06234567901234567,0,0,0.06234567901234567,48.50493827160493,0)" xlink:href="#aK"/></g><path d="M115-194c55 1 70 41 70 98S169 2 115 4C84 4 66-9 55-30l1 105H24l-1-265h31l2 30c10-21 28-34 59-34zm-8 174c40 0 45-34 45-75s-6-73-45-74c-42 0-51 32-51 76 0 43 10 73 51 73" id="aO"/><path d="M106-169C34-169 62-67 57 0H25v-261h32l-1 103c12-21 28-36 61-36 89 0 53 116 60 194h-32v-121c2-32-8-49-39-48" id="aP"/><g id="B"><use transform="matrix(0.06234567901234567,0,0,0.06234567901234567,0,0)" xlink:href="#aO"/><use transform="matrix(0.06234567901234567,0,0,0.06234567901234567,12.469135802469133,0)" xlink:href="#aP"/><use transform="matrix(0.06234567901234567,0,0,0.06234567901234567,24.938271604938265,0)" xlink:href="#ar"/><use transform="matrix(0.06234567901234567,0,0,0.06234567901234567,37.4074074074074,0)" xlink:href="#aL"/><use transform="matrix(0.06234567901234567,0,0,0.06234567901234567,43.64197530864196,0)" xlink:href="#ar"/><use transform="matrix(0.06234567901234567,0,0,0.06234567901234567,56.11111111111109,0)" xlink:href="#aM"/><use transform="matrix(0.06234567901234567,0,0,0.06234567901234567,68.58024691358023,0)" xlink:href="#au"/><use transform="matrix(0.06234567901234567,0,0,0.06234567901234567,81.04938271604937,0)" xlink:href="#ax"/><use transform="matrix(0.06234567901234567,0,0,0.06234567901234567,88.4685185185185,0)" xlink:href="#aK"/></g><g id="C"><use transform="matrix(0.06234567901234567,0,0,0.06234567901234567,0,0)" xlink:href="#aN"/><use transform="matrix(0.06234567901234567,0,0,0.06234567901234567,4.925308641975308,0)" xlink:href="#av"/><use transform="matrix(0.06234567901234567,0,0,0.06234567901234567,16.147530864197527,0)" xlink:href="#aM"/><use transform="matrix(0.06234567901234567,0,0,0.06234567901234567,28.61666666666666,0)" xlink:href="#az"/><use transform="matrix(0.06234567901234567,0,0,0.06234567901234567,41.08580246913579,0)" xlink:href="#as"/><use transform="matrix(0.06234567901234567,0,0,0.06234567901234567,53.554938271604925,0)" xlink:href="#aA"/><use transform="matrix(0.06234567901234567,0,0,0.06234567901234567,72.19629629629628,0)" xlink:href="#aN"/><use transform="matrix(0.06234567901234567,0,0,0.06234567901234567,77.12160493827159,0)" xlink:href="#ay"/></g><g id="D"><use transform="matrix(0.06234567901234567,0,0,0.06234567901234567,0,0)" xlink:href="#an"/><use transform="matrix(0.06234567901234567,0,0,0.06234567901234567,11.22222222222222,0)" xlink:href="#ae"/><use transform="matrix(0.06234567901234567,0,0,0.06234567901234567,23.691358024691354,0)" xlink:href="#aD"/><use transform="matrix(0.06234567901234567,0,0,0.06234567901234567,42.33271604938271,0)" xlink:href="#aD"/><use transform="matrix(0.06234567901234567,0,0,0.06234567901234567,60.97407407407407,0)" xlink:href="#am"/><use transform="matrix(0.06234567901234567,0,0,0.06234567901234567,73.4432098765432,0)" xlink:href="#ap"/><use transform="matrix(0.06234567901234567,0,0,0.06234567901234567,85.91234567901233,0)" xlink:href="#ag"/><use transform="matrix(0.06234567901234567,0,0,0.06234567901234567,92.1469135802469,0)" xlink:href="#aF"/><use transform="matrix(0.06234567901234567,0,0,0.06234567901234567,104.61604938271603,0)" xlink:href="#aG"/><use transform="matrix(0.06234567901234567,0,0,0.06234567901234567,117.08518518518517,0)" xlink:href="#af"/><use transform="matrix(0.06234567901234567,0,0,0.06234567901234567,128.3074074074074,0)" xlink:href="#am"/><use transform="matrix(0.06234567901234567,0,0,0.06234567901234567,140.77654320987654,0)" xlink:href="#ao"/></g><g id="E"><use transform="matrix(0.06234567901234567,0,0,0.06234567901234567,0,0)" xlink:href="#an"/><use transform="matrix(0.06234567901234567,0,0,0.06234567901234567,11.22222222222222,0)" xlink:href="#ae"/><use transform="matrix(0.06234567901234567,0,0,0.06234567901234567,23.691358024691354,0)" xlink:href="#aD"/><use transform="matrix(0.06234567901234567,0,0,0.06234567901234567,42.33271604938271,0)" xlink:href="#aD"/><use transform="matrix(0.06234567901234567,0,0,0.06234567901234567,60.97407407407407,0)" xlink:href="#am"/><use transform="matrix(0.06234567901234567,0,0,0.06234567901234567,73.4432098765432,0)" xlink:href="#ap"/><use transform="matrix(0.06234567901234567,0,0,0.06234567901234567,85.91234567901233,0)" xlink:href="#ag"/><use transform="matrix(0.06234567901234567,0,0,0.06234567901234567,92.1469135802469,0)" xlink:href="#aF"/><use transform="matrix(0.06234567901234567,0,0,0.06234567901234567,104.61604938271603,0)" xlink:href="#ah"/><use transform="matrix(0.06234567901234567,0,0,0.06234567901234567,109.54135802469133,0)" xlink:href="#ai"/></g><path fill="#333" d="M108 0H70L1-190h34L89-25l56-165h34" id="aQ"/><g id="F"><use transform="matrix(0.06234567901234567,0,0,0.06234567901234567,0,0)" xlink:href="#aQ"/><use transform="matrix(0.06234567901234567,0,0,0.06234567901234567,11.22222222222222,0)" xlink:href="#ae"/><use transform="matrix(0.06234567901234567,0,0,0.06234567901234567,23.691358024691354,0)" xlink:href="#ag"/><use transform="matrix(0.06234567901234567,0,0,0.06234567901234567,29.92592592592592,0)" xlink:href="#am"/><use transform="matrix(0.06234567901234567,0,0,0.06234567901234567,42.39506172839505,0)" xlink:href="#af"/></g><g id="G"><use transform="matrix(0.06234567901234567,0,0,0.06234567901234567,0,0)" xlink:href="#ad"/><use transform="matrix(0.06234567901234567,0,0,0.06234567901234567,12.469135802469133,0)" xlink:href="#ae"/><use transform="matrix(0.06234567901234567,0,0,0.06234567901234567,24.938271604938265,0)" xlink:href="#af"/><use transform="matrix(0.06234567901234567,0,0,0.06234567901234567,36.16049382716049,0)" xlink:href="#ag"/><use transform="matrix(0.06234567901234567,0,0,0.06234567901234567,42.39506172839505,0)" xlink:href="#aF"/><use transform="matrix(0.06234567901234567,0,0,0.06234567901234567,54.86419753086418,0)" xlink:href="#ah"/><use transform="matrix(0.06234567901234567,0,0,0.06234567901234567,59.78950617283949,0)" xlink:href="#ai"/></g><g id="H"><use transform="matrix(0.06234567901234567,0,0,0.06234567901234567,0,0)" xlink:href="#ai"/><use transform="matrix(0.06234567901234567,0,0,0.06234567901234567,12.469135802469133,0)" xlink:href="#ah"/><use transform="matrix(0.06234567901234567,0,0,0.06234567901234567,17.39444444444444,0)" xlink:href="#ao"/><use transform="matrix(0.06234567901234567,0,0,0.06234567901234567,24.813580246913574,0)" xlink:href="#am"/><use transform="matrix(0.06234567901234567,0,0,0.06234567901234567,37.28271604938271,0)" xlink:href="#an"/><use transform="matrix(0.06234567901234567,0,0,0.06234567901234567,48.50493827160493,0)" xlink:href="#ag"/><use transform="matrix(0.06234567901234567,0,0,0.06234567901234567,54.7395061728395,0)" xlink:href="#ah"/><use transform="matrix(0.06234567901234567,0,0,0.06234567901234567,59.664814814814804,0)" xlink:href="#ae"/><use transform="matrix(0.06234567901234567,0,0,0.06234567901234567,72.13395061728394,0)" xlink:href="#ap"/></g></defs></g></svg>